HIERARCHY
ROOT newVegas:Hips
{
	OFFSET 0.000000 96.479958 0.000000
	CHANNELS 6 Xposition Yposition Zposition Xrotation Yrotation Zrotation
	JOINT newVegas:Pelvis
	{
		OFFSET 0.000000 0.000000 0.000000
		CHANNELS 3 Xrotation Yrotation Zrotation
		JOINT newVegas:LeftUpLeg
		{
			OFFSET 18.735201 -5.666702 -4.541200
			CHANNELS 3 Xrotation Yrotation Zrotation
			JOINT newVegas:LeftLeg
			{
				OFFSET -0.021200 -31.938179 0.493100
				CHANNELS 3 Xrotation Yrotation Zrotation
				JOINT newVegas:LeftFoot
				{
					OFFSET 0.021200 -31.938179 -4.336299
					CHANNELS 3 Xrotation Yrotation Zrotation
					JOINT newVegas:LeftToeBase
					{
						OFFSET 0.943001 -26.722000 15.023500
						CHANNELS 3 Xrotation Yrotation Zrotation
						End Site
						{
							OFFSET 0.000000 30.670183 0.000000
						}
					}
				}
				JOINT newVegas:Left_PantLeg
				{
					OFFSET 0.663870 -9.044666 -1.108900
					CHANNELS 3 Xrotation Yrotation Zrotation
					End Site
					{
						OFFSET 1.415995 20.635357 0.000000
					}
				}
			}
		}
		JOINT newVegas:RightUpLeg
		{
			OFFSET -18.735201 -5.666702 -4.541200
			CHANNELS 3 Xrotation Yrotation Zrotation
			JOINT newVegas:RightLeg
			{
				OFFSET 0.018946 -31.938133 0.493100
				CHANNELS 3 Xrotation Yrotation Zrotation
				JOINT newVegas:RightFoot
				{
					OFFSET -0.018946 -31.938126 -4.336299
					CHANNELS 3 Xrotation Yrotation Zrotation
					JOINT newVegas:RightToeBase
					{
						OFFSET -0.943001 -26.722004 15.023500
						CHANNELS 3 Xrotation Yrotation Zrotation
						End Site
						{
							OFFSET 0.000000 30.670187 0.000000
						}
					}
				}
				JOINT newVegas:Right_PantLeg
				{
					OFFSET -0.661674 -9.044716 -1.108900
					CHANNELS 3 Xrotation Yrotation Zrotation
					End Site
					{
						OFFSET -1.415958 20.635269 0.000000
					}
				}
			}
		}
	}
	JOINT newVegas:Spine
	{
		OFFSET 0.000000 10.199997 -0.299500
		CHANNELS 3 Xrotation Yrotation Zrotation
		JOINT newVegas:Spine1
		{
			OFFSET 0.000000 11.900002 -1.516600
			CHANNELS 3 Xrotation Yrotation Zrotation
			JOINT newVegas:Spine2
			{
				OFFSET 0.000000 13.600006 -2.842500
				CHANNELS 3 Xrotation Yrotation Zrotation
				JOINT newVegas:Neck
				{
					OFFSET 0.000000 9.624100 -2.890100
					CHANNELS 3 Xrotation Yrotation Zrotation
					JOINT newVegas:Head
					{
						OFFSET 0.000000 14.068802 -1.351900
						CHANNELS 3 Xrotation Yrotation Zrotation
						JOINT newVegas:Hair_Back
						{
							OFFSET 0.000000 3.231903 -17.524799
							CHANNELS 3 Xrotation Yrotation Zrotation
							End Site
							{
								OFFSET 0.000000 19.849884 0.000000
							}
						}
						JOINT newVegas:Hair_Front
						{
							OFFSET 0.000000 31.260406 4.573800
							CHANNELS 3 Xrotation Yrotation Zrotation
							JOINT newVegas:Hair_Front1
							{
								OFFSET 0.000000 2.284103 11.993300
								CHANNELS 3 Xrotation Yrotation Zrotation
								JOINT newVegas:Hair_Front2
								{
									OFFSET 0.000000 2.284103 11.993300
									CHANNELS 3 Xrotation Yrotation Zrotation
									End Site
									{
										OFFSET 0.000000 12.208862 0.000000
									}
								}
							}
						}
						JOINT newVegas:Jowel
						{
							OFFSET 0.000000 -7.458206 6.864100
							CHANNELS 3 Xrotation Yrotation Zrotation
							End Site
							{
								OFFSET 0.000000 19.849884 0.000000
							}
						}
					}
				}
				JOINT newVegas:LeftShoulder
				{
					OFFSET 15.263000 10.923401 -0.547700
					CHANNELS 3 Xrotation Yrotation Zrotation
					JOINT newVegas:LeftArm
					{
						OFFSET 25.438599 -2.830597 -13.032500
						CHANNELS 3 Xrotation Yrotation Zrotation
						JOINT newVegas:LeftForeArm
						{
							OFFSET 29.960503 0.000000 0.000000
							CHANNELS 3 Xrotation Yrotation Zrotation
							JOINT newVegas:LeftHand
							{
								OFFSET 27.849251 0.000000 0.000000
								CHANNELS 3 Xrotation Yrotation Zrotation
								JOINT newVegas:LeftHandThumb1
								{
									OFFSET 4.487587 -3.305161 6.305391
									CHANNELS 3 Xrotation Yrotation Zrotation
									JOINT newVegas:LeftHandThumb2
									{
										OFFSET 5.480453 -3.164139 3.164143
										CHANNELS 3 Xrotation Yrotation Zrotation
										JOINT newVegas:LeftHandThumb3
										{
											OFFSET 5.159721 -2.978973 2.978967
											CHANNELS 3 Xrotation Yrotation Zrotation
											End Site
											{
												OFFSET 2.494507 5.926697 1.738678
											}
										}
									}
								}
								JOINT newVegas:LeftHandIndex1
								{
									OFFSET 18.578728 -0.527832 5.208049
									CHANNELS 3 Xrotation Yrotation Zrotation
									JOINT newVegas:LeftHandIndex2
									{
										OFFSET 3.192009 0.000000 0.000000
										CHANNELS 3 Xrotation Yrotation Zrotation
										JOINT newVegas:LeftHandIndex3
										{
											OFFSET 3.835129 0.000000 0.000000
											CHANNELS 3 Xrotation Yrotation Zrotation
											End Site
											{
												OFFSET -0.034599 3.816971 0.371180
											}
										}
									}
								}
								JOINT newVegas:LeftHandMiddle1
								{
									OFFSET 18.476105 0.000000 0.000000
									CHANNELS 3 Xrotation Yrotation Zrotation
									JOINT newVegas:LeftHandMiddle2
									{
										OFFSET 3.324875 0.000000 0.000000
										CHANNELS 3 Xrotation Yrotation Zrotation
										JOINT newVegas:LeftHandMiddle3
										{
											OFFSET 4.596550 0.000000 0.000000
											CHANNELS 3 Xrotation Yrotation Zrotation
											End Site
											{
												OFFSET 0.057701 4.578827 0.399218
											}
										}
									}
								}
								JOINT newVegas:LeftHandRing1
								{
									OFFSET 17.732719 0.121887 -4.201567
									CHANNELS 3 Xrotation Yrotation Zrotation
									JOINT newVegas:LeftHandRing2
									{
										OFFSET 2.733170 0.000000 0.000000
										CHANNELS 3 Xrotation Yrotation Zrotation
										JOINT newVegas:LeftHandRing3
										{
											OFFSET 3.178268 0.000000 0.000000
											CHANNELS 3 Xrotation Yrotation Zrotation
											End Site
											{
												OFFSET 0.119102 3.170624 0.185394
											}
										}
									}
								}
								JOINT newVegas:LeftHandPinky1
								{
									OFFSET 15.989624 -0.606689 -7.535461
									CHANNELS 3 Xrotation Yrotation Zrotation
									JOINT newVegas:LeftHandPinky2
									{
										OFFSET 2.538986 0.000000 0.000000
										CHANNELS 3 Xrotation Yrotation Zrotation
										JOINT newVegas:LeftHandPinky3
										{
											OFFSET 2.593102 0.000000 0.000000
											CHANNELS 3 Xrotation Yrotation Zrotation
											End Site
											{
												OFFSET -0.150902 2.584198 0.152708
											}
										}
									}
								}
							}
							JOINT newVegas:Left_Sleeve
							{
								OFFSET 0.267448 -0.649796 0.577675
								CHANNELS 3 Xrotation Yrotation Zrotation
								End Site
								{
									OFFSET 0.000000 15.991241 0.000000
								}
							}
							JOINT newVegas:Left_CapeC
							{
								OFFSET 15.715958 -8.608795 -6.935905
								CHANNELS 3 Xrotation Yrotation Zrotation
								JOINT newVegas:Left_CapeC1
								{
									OFFSET 0.000000 -8.688499 0.000000
									CHANNELS 3 Xrotation Yrotation Zrotation
									End Site
									{
										OFFSET 0.000000 8.688499 0.000000
									}
								}
							}
						}
						JOINT newVegas:Left_CapeB
						{
							OFFSET 26.118385 -8.608795 -7.079235
							CHANNELS 3 Xrotation Yrotation Zrotation
							JOINT newVegas:Left_CapeB1
							{
								OFFSET 0.000000 -8.688499 0.000000
								CHANNELS 3 Xrotation Yrotation Zrotation
								End Site
								{
									OFFSET 0.000000 8.688499 0.000000
								}
							}
						}
						JOINT newVegas:Left_CapeA
						{
							OFFSET 5.115639 -8.608795 -10.395809
							CHANNELS 3 Xrotation Yrotation Zrotation
							JOINT newVegas:Left_CapeA1
							{
								OFFSET 0.000000 -8.688499 0.000000
								CHANNELS 3 Xrotation Yrotation Zrotation
								End Site
								{
									OFFSET 0.000000 8.688499 0.000000
								}
							}
						}
					}
				}
				JOINT newVegas:RightShoulder
				{
					OFFSET -15.263000 10.923401 -0.547700
					CHANNELS 3 Xrotation Yrotation Zrotation
					JOINT newVegas:RightArm
					{
						OFFSET -25.438599 -2.830597 -13.032500
						CHANNELS 3 Xrotation Yrotation Zrotation
						JOINT newVegas:RightForeArm
						{
							OFFSET -29.960503 0.000000 0.000000
							CHANNELS 3 Xrotation Yrotation Zrotation
							JOINT newVegas:RightHand
							{
								OFFSET -27.849251 0.000000 0.000000
								CHANNELS 3 Xrotation Yrotation Zrotation
								JOINT newVegas:RightHandThumb1
								{
									OFFSET -4.487587 -3.305161 6.305391
									CHANNELS 3 Xrotation Yrotation Zrotation
									JOINT newVegas:RightHandThumb2
									{
										OFFSET -5.480453 -3.164139 3.164143
										CHANNELS 3 Xrotation Yrotation Zrotation
										JOINT newVegas:RightHandThumb3
										{
											OFFSET -5.159721 -2.978973 2.978967
											CHANNELS 3 Xrotation Yrotation Zrotation
											End Site
											{
												OFFSET -2.494507 5.926697 1.738678
											}
										}
									}
								}
								JOINT newVegas:RightHandIndex1
								{
									OFFSET -18.578728 -0.527832 5.208049
									CHANNELS 3 Xrotation Yrotation Zrotation
									JOINT newVegas:RightHandIndex2
									{
										OFFSET -3.192009 0.000000 0.000000
										CHANNELS 3 Xrotation Yrotation Zrotation
										JOINT newVegas:RightHandIndex3
										{
											OFFSET -3.835129 0.000000 0.000000
											CHANNELS 3 Xrotation Yrotation Zrotation
											End Site
											{
												OFFSET 0.034599 3.816971 0.371180
											}
										}
									}
								}
								JOINT newVegas:RightHandMiddle1
								{
									OFFSET -18.476105 0.000000 0.000000
									CHANNELS 3 Xrotation Yrotation Zrotation
									JOINT newVegas:RightHandMiddle2
									{
										OFFSET -3.324875 0.000000 0.000000
										CHANNELS 3 Xrotation Yrotation Zrotation
										JOINT newVegas:RightHandMiddle3
										{
											OFFSET -4.596550 0.000000 0.000000
											CHANNELS 3 Xrotation Yrotation Zrotation
											End Site
											{
												OFFSET -0.057701 4.578827 0.399218
											}
										}
									}
								}
								JOINT newVegas:RightHandRing1
								{
									OFFSET -17.732719 0.121887 -4.201567
									CHANNELS 3 Xrotation Yrotation Zrotation
									JOINT newVegas:RightHandRing2
									{
										OFFSET -2.733170 0.000000 0.000000
										CHANNELS 3 Xrotation Yrotation Zrotation
										JOINT newVegas:RightHandRing3
										{
											OFFSET -3.178268 0.000000 0.000000
											CHANNELS 3 Xrotation Yrotation Zrotation
											End Site
											{
												OFFSET -0.119102 3.170624 0.185394
											}
										}
									}
								}
								JOINT newVegas:RightHandPinky1
								{
									OFFSET -15.989624 -0.606689 -7.535461
									CHANNELS 3 Xrotation Yrotation Zrotation
									JOINT newVegas:RightHandPinky2
									{
										OFFSET -2.538986 0.000000 0.000000
										CHANNELS 3 Xrotation Yrotation Zrotation
										JOINT newVegas:RightHandPinky3
										{
											OFFSET -2.593102 0.000000 0.000000
											CHANNELS 3 Xrotation Yrotation Zrotation
											End Site
											{
												OFFSET 0.150902 2.584198 0.152708
											}
										}
									}
								}
							}
							JOINT newVegas:Right_CapeC
							{
								OFFSET -15.715958 -8.608795 -6.935905
								CHANNELS 3 Xrotation Yrotation Zrotation
								JOINT newVegas:Right_CapeC1
								{
									OFFSET 0.000000 -8.688499 0.000000
									CHANNELS 3 Xrotation Yrotation Zrotation
									End Site
									{
										OFFSET 0.000000 8.688499 0.000000
									}
								}
							}
							JOINT newVegas:Right_Sleeve
							{
								OFFSET -0.267448 -0.649994 0.577675
								CHANNELS 3 Xrotation Yrotation Zrotation
								End Site
								{
									OFFSET 0.000000 15.991302 0.000000
								}
							}
						}
						JOINT newVegas:Right_CapeA
						{
							OFFSET -5.115540 -8.608795 -10.395824
							CHANNELS 3 Xrotation Yrotation Zrotation
							JOINT newVegas:Right_CapeA1
							{
								OFFSET 0.000000 -8.688499 0.000000
								CHANNELS 3 Xrotation Yrotation Zrotation
								End Site
								{
									OFFSET 0.000000 8.688499 0.000000
								}
							}
						}
						JOINT newVegas:Right_CapeB
						{
							OFFSET -26.118187 -8.608795 -7.079266
							CHANNELS 3 Xrotation Yrotation Zrotation
							JOINT newVegas:Right_CapeB1
							{
								OFFSET 0.000000 -8.688499 0.000000
								CHANNELS 3 Xrotation Yrotation Zrotation
								End Site
								{
									OFFSET 0.000000 8.688499 0.000000
								}
							}
						}
					}
				}
				JOINT newVegas:Left_Collar
				{
					OFFSET 18.625099 8.655502 8.828100
					CHANNELS 3 Xrotation Yrotation Zrotation
					JOINT newVegas:Left_Collar1
					{
						OFFSET 14.783401 10.540405 -1.259500
						CHANNELS 3 Xrotation Yrotation Zrotation
						End Site
						{
							OFFSET 0.000000 18.199875 0.000000
						}
					}
				}
				JOINT newVegas:Collar_Back
				{
					OFFSET 0.000000 15.630707 -20.132601
					CHANNELS 3 Xrotation Yrotation Zrotation
					End Site
					{
						OFFSET 0.000000 22.523010 0.000000
					}
				}
				JOINT newVegas:Left_Peck
				{
					OFFSET 17.239599 -5.132599 25.482599
					CHANNELS 3 Xrotation Yrotation Zrotation
					End Site
					{
						OFFSET 0.000000 22.523010 0.000000
					}
				}
				JOINT newVegas:Right_Peck
				{
					OFFSET -17.239599 -5.132202 25.482599
					CHANNELS 3 Xrotation Yrotation Zrotation
					End Site
					{
						OFFSET 0.000000 22.523010 0.000000
					}
				}
				JOINT newVegas:Right_Collar
				{
					OFFSET -18.625099 8.655792 8.828100
					CHANNELS 3 Xrotation Yrotation Zrotation
					JOINT newVegas:Right_Collar1
					{
						OFFSET -14.783401 10.539993 -1.259500
						CHANNELS 3 Xrotation Yrotation Zrotation
						End Site
						{
							OFFSET 0.000000 18.199631 0.000000
						}
					}
				}
			}
		}
		JOINT newVegas:Belly
		{
			OFFSET 0.000000 -6.540398 9.014299
			CHANNELS 3 Xrotation Yrotation Zrotation
			End Site
			{
				OFFSET 0.000000 11.566666 0.000000
			}
		}
	}
	JOINT newVegas:ElvisFacialAnim_Joint
	{
		OFFSET 1.000000 -95.330101 -8.825800
		CHANNELS 3 Xrotation Yrotation Zrotation
		End Site
		{
			OFFSET 0.000000 35.315800 0.000000
		}
	}
}
MOTION
Frames: 4
Frame Time: 0.033333
-7.549820 26.765495 -0.848679 85.748838 -41.924292 7.846961 -0.000000 0.000001 -0.000000 8.363636 20.076054 7.548762 2.263244 4.207814 1.802452 0.820521 -2.756369 -23.296483 0.000000 -0.000001 0.000000 0.000000 0.000000 -0.000000 150.934545 -23.017113 -47.062227 134.946875 -13.503079 -10.637612 28.010896 -0.836526 -23.814216 0.000000 -0.000002 0.000001 0.000001 -0.000002 0.000000 16.897878 14.704755 3.406112 2.137988 4.141164 0.333299 2.146829 4.147208 1.796048 -4.929736 1.330390 -3.472049 -4.929736 1.330396 -3.472048 -0.000000 -0.000000 0.000000 -4.929717 1.330383 -3.472049 -4.929660 1.330408 -3.472061 0.000000 0.000000 -0.000000 -0.000000 -0.000000 0.000000 3.538607 -0.036633 20.605267 -58.797834 -3.269567 -12.870665 0.000010 -75.945966 -0.000009 8.137638 22.598806 34.944238 -14.393078 -13.618917 18.264230 5.622864 12.178610 5.354615 0.000002 -0.000003 -0.000003 1.687185 -10.140125 1.198338 0.000002 -0.000023 -0.000006 0.000000 0.000002 -0.000000 0.066102 2.203280 1.554780 0.000001 -0.000005 -0.000004 -0.000000 0.000002 0.000000 0.000064 9.621243 0.877878 0.000000 0.001973 -0.019375 -0.000000 -0.000001 -0.000000 -2.675086 16.115316 0.729688 0.000000 0.001984 -0.019378 -0.000000 -0.000002 -0.000001 -0.000000 -0.000002 0.000003 -0.000000 -0.000002 0.000003 -0.000001 -0.000002 0.000002 0.000001 0.000000 -0.000002 0.000002 -0.000001 -0.000003 0.000001 0.000000 -0.000002 -0.000000 0.000000 -0.000001 -1.645338 17.008332 -7.934772 -2.726695 34.077917 29.963709 -0.000046 79.639623 0.000057 69.797116 -20.055471 -59.802555 -14.253421 12.314951 -13.453537 1.312327 -13.365179 -17.259278 0.000000 -0.000000 -0.000000 1.785277 2.351746 -13.967656 0.001670 -0.124830 1.532384 -0.000000 0.000001 -0.000001 -0.761863 -4.802770 -14.729274 0.000258 -0.049150 0.603261 0.000001 -0.000001 -0.000000 -1.670032 -8.616074 -14.324543 0.021557 -0.448070 5.508666 0.000000 -0.000001 -0.000000 -15.463398 -12.336512 -19.353554 0.032199 -0.547268 6.733752 0.000000 -0.000002 -0.000000 -0.000002 0.000001 0.000001 -0.000002 -0.000001 -0.000001 -0.000002 0.000001 0.000001 0.000001 0.000003 -0.000000 0.000002 0.000003 -0.000001 0.000001 0.000003 -0.000000 0.000002 0.000003 -0.000000 0.000000 0.000000 0.000000 0.000000 0.000000 0.000000 0.000000 0.000000 0.000000 0.000000 0.000000 0.000000 0.000000 0.000000 0.000000 0.000000 0.000000 0.000000 0.000000 0.000000 0.000000 -0.000000 0.000000 -0.000001 -0.000000 0.000001 -0.000000 
-8.180098 27.274742 0.635162 87.461440 -42.229615 9.465406 -0.000000 0.000003 0.000000 7.873629 21.096050 6.604423 -0.537519 2.434304 1.522491 6.315354 -1.336607 -21.336609 0.000000 -0.000001 0.000000 -0.000000 -0.000004 0.000004 153.047109 -24.474076 -48.431946 136.266345 -11.879203 -10.449734 24.075701 0.095284 -24.021910 0.000001 0.000002 -0.000000 -0.000001 0.000000 -0.000000 15.568052 15.697228 2.597771 1.817474 4.469283 0.302347 1.833601 4.478231 1.692900 -4.739130 1.252765 -3.327891 -4.739123 1.252769 -3.327889 -0.000000 0.000000 0.000000 -4.739175 1.252797 -3.327895 -4.739103 1.252734 -3.327885 0.000001 0.000001 -0.000001 -0.000000 0.000000 0.000000 3.158982 -0.155178 17.940549 -56.086146 -6.078990 -14.157323 -0.000071 -77.397122 -0.000100 8.782558 23.150202 37.199078 -14.393078 -13.618922 18.264221 5.622872 12.178625 5.354619 0.000003 -0.000002 0.000000 1.687184 -10.140127 1.198338 0.000001 -0.000018 -0.000000 0.000000 -0.000002 -0.000001 0.066098 2.203296 1.554781 -0.000001 0.000021 -0.000001 0.000000 0.000000 0.000001 0.000068 9.621244 0.877873 -0.000001 0.001992 -0.019379 -0.000000 0.000001 0.000001 -2.675089 16.115331 0.729687 0.000002 0.001988 -0.019376 0.000000 -0.000005 0.000001 0.000002 0.000001 -0.000002 0.000002 0.000001 -0.000002 0.000001 0.000001 -0.000003 -0.000002 0.000002 -0.000004 -0.000002 0.000001 -0.000005 -0.000002 0.000002 -0.000004 -0.000002 0.000002 -0.000003 -1.799995 16.425997 -6.697322 3.809791 31.802238 27.132122 -0.000023 82.270817 -0.000019 66.813231 -16.911682 -58.420070 -13.738828 12.196799 -12.765901 2.499227 -13.905282 -13.239277 -0.000000 0.000001 0.000001 1.619949 2.299963 -12.268785 0.000495 -0.068124 0.836139 0.000000 0.000001 0.000001 -0.464630 -3.775391 -14.060838 0.000259 -0.049160 0.603260 -0.000000 -0.000002 -0.000001 -1.086473 -6.481670 -13.674479 0.009631 -0.299700 3.681711 -0.000001 -0.000001 0.000000 -10.454881 -9.802591 -15.950542 0.017360 -0.402100 4.942193 -0.000001 -0.000002 -0.000000 0.000002 0.000000 -0.000001 -0.000001 0.000001 0.000000 0.000002 -0.000000 0.000001 -0.000003 -0.000003 -0.000000 -0.000002 -0.000002 -0.000003 -0.000003 -0.000003 -0.000000 -0.000002 -0.000002 -0.000002 -0.000000 0.000000 0.000002 -0.000000 0.000000 0.000002 -0.000000 0.000000 0.000002 -0.000000 0.000000 0.000002 -0.000000 0.000000 0.000002 -0.000000 0.000000 0.000002 -0.000000 0.000000 0.000002 -0.000000 0.000001 -0.000001 -0.000000 0.000003 0.000000 
-8.962290 27.924103 2.531776 89.216231 -42.628816 11.521318 0.000001 -0.000002 -0.000000 5.618984 23.387961 5.635259 -0.310206 -0.381141 1.561895 11.738921 1.889337 -20.132558 0.000001 -0.000000 0.000000 0.000000 0.000003 0.000000 156.897245 -26.125422 -49.021309 137.521337 -9.429802 -10.091843 19.564317 1.514662 -23.987927 -0.000001 -0.000001 0.000002 -0.000000 -0.000001 -0.000001 14.400803 16.722907 1.343667 1.497223 4.797322 0.271396 1.521020 4.809230 1.589764 -4.527301 1.174851 -3.189701 -4.527301 1.174857 -3.189711 0.000000 0.000000 -0.000000 -4.527329 1.174850 -3.189704 -4.527240 1.174865 -3.189706 -0.000001 0.000000 -0.000000 0.000000 0.000000 -0.000000 2.821798 -0.244939 15.601974 -53.396626 -8.625111 -15.482560 -0.000044 -78.556068 -0.000041 9.615075 23.452271 39.410041 -14.393082 -13.618932 18.264214 5.622873 12.178616 5.354619 0.000002 0.000000 -0.000004 1.687184 -10.140148 1.198337 -0.000001 -0.000007 -0.000010 0.000001 0.000002 0.000000 0.066097 2.203283 1.554782 0.000000 -0.000001 -0.000001 0.000000 -0.000001 0.000001 0.000066 9.621231 0.877874 0.000000 0.002005 -0.019379 0.000000 0.000001 -0.000000 -2.675090 16.115322 0.729686 0.000001 0.001989 -0.019374 -0.000001 -0.000003 0.000001 -0.000001 -0.000001 -0.000000 -0.000001 -0.000001 -0.000000 -0.000002 -0.000001 -0.000001 0.000002 0.000000 0.000001 0.000002 -0.000001 -0.000000 0.000002 0.000000 0.000001 0.000002 -0.000002 0.000001 -1.667757 15.652087 -5.974537 8.466290 27.591029 26.027214 -0.000261 86.863593 0.000328 64.830229 -11.966410 -54.193289 -13.162618 12.139511 -12.032502 3.840768 -14.317390 -8.885995 -0.000002 -0.000003 -0.000004 1.448683 2.210993 -10.211782 0.000030 -0.015931 0.195422 -0.000000 -0.000001 -0.000001 -0.194953 -2.819188 -12.935579 0.000259 -0.049143 0.603261 -0.000001 0.000000 0.000001 -0.544922 -4.453681 -12.606315 0.002672 -0.158025 1.940223 -0.000001 -0.000001 -0.000003 -5.843955 -7.001775 -12.743484 0.005974 -0.235941 2.897776 -0.000001 -0.000000 0.000000 -0.000003 0.000001 0.000001 -0.000002 -0.000000 -0.000001 -0.000003 0.000000 0.000001 0.000003 -0.000001 0.000002 0.000003 0.000000 0.000003 0.000003 -0.000001 0.000002 0.000003 0.000000 0.000005 0.000001 -0.000000 0.000001 0.000001 -0.000000 0.000001 0.000001 -0.000000 0.000001 0.000001 -0.000000 0.000001 0.000001 -0.000000 0.000001 0.000001 -0.000000 0.000001 0.000001 -0.000000 0.000001 -0.000001 0.000000 0.000001 0.000001 -0.000002 -0.000000 
-9.743532 28.627342 4.487869 90.988085 -42.964181 13.581721 0.000000 -0.000000 -0.000000 3.193312 26.643057 4.966760 -0.150144 -3.499761 0.992055 17.996029 6.101325 -19.221756 -0.000000 0.000000 -0.000000 -0.000000 0.000001 0.000000 162.145727 -27.553103 -48.159858 138.310293 -6.550625 -9.688144 15.086727 3.256990 -23.104389 -0.000003 0.000000 -0.000002 -0.000002 -0.000002 0.000000 13.278975 17.751600 0.093531 1.178474 5.123493 0.240625 1.210962 5.136149 1.478216 -4.304033 1.097569 -3.055823 -4.304063 1.097583 -3.055840 -0.000000 0.000000 -0.000001 -4.304030 1.097577 -3.055836 -4.304027 1.097568 -3.055829 -0.000001 0.000000 -0.000000 -0.000000 0.000000 -0.000001 2.522875 -0.312659 13.547401 -50.786654 -10.946591 -16.876759 0.000080 -79.444143 0.000091 10.676137 23.528946 41.532229 -14.393078 -13.618935 18.264221 5.622869 12.178618 5.354614 0.000002 0.000002 0.000001 1.687184 -10.140157 1.198336 0.000001 0.000000 0.000001 0.000000 -0.000001 -0.000000 0.066097 2.203289 1.554782 0.000000 -0.000002 -0.000004 0.000000 0.000001 0.000000 0.000066 9.621241 0.877871 0.000001 0.001996 -0.019386 -0.000000 0.000001 0.000002 -2.675090 16.115300 0.729687 0.000002 0.001979 -0.019379 0.000000 -0.000003 -0.000000 -0.000000 0.000001 -0.000004 -0.000000 0.000001 -0.000004 -0.000001 0.000001 -0.000004 0.000000 -0.000001 -0.000001 0.000000 -0.000002 -0.000003 0.000000 -0.000001 -0.000001 0.000002 0.000000 -0.000001 -1.596463 15.204744 -5.142106 12.008471 23.392993 24.930370 -0.000367 92.298750 0.000479 63.712578 -9.369503 -48.815806 -12.644225 12.037550 -11.344360 5.132919 -14.539731 -4.813229 0.000002 0.000003 -0.000000 1.245858 1.863240 -5.221242 0.000004 0.000016 0.000011 -0.000001 -0.000000 0.000001 -0.015362 -2.377079 -8.340495 0.000248 -0.049158 0.603258 0.000001 -0.000001 -0.000001 -0.128606 -3.158883 -8.338120 0.000301 -0.052470 0.643723 -0.000000 -0.000001 -0.000001 -2.454054 -4.762194 -7.743832 0.000863 -0.090110 1.106333 0.000001 -0.000005 -0.000003 -0.000001 0.000002 0.000001 -0.000000 0.000001 -0.000001 -0.000001 0.000001 0.000003 -0.000001 0.000001 0.000003 -0.000001 0.000001 -0.000000 -0.000001 0.000001 0.000003 -0.000001 0.000001 0.000002 -0.000000 -0.000000 0.000002 -0.000000 -0.000000 0.000002 -0.000000 -0.000000 0.000002 -0.000000 -0.000000 0.000002 -0.000000 -0.000000 0.000002 -0.000000 -0.000000 0.000002 -0.000000 -0.000000 0.000002 -0.000001 0.000000 0.000002 0.000000 -0.000000 -0.000000 
